<?xml version="1.0" encoding="UTF-8" standalone="no"?>
<svg
   xmlns:dc="http://purl.org/dc/elements/1.1/"
   xmlns:cc="http://creativecommons.org/ns#"
   xmlns:rdf="http://www.w3.org/1999/02/22-rdf-syntax-ns#"
   xmlns:svg="http://www.w3.org/2000/svg"
   xmlns="http://www.w3.org/2000/svg"
   xmlns:sodipodi="http://sodipodi.sourceforge.net/DTD/sodipodi-0.dtd"
   xmlns:inkscape="http://www.inkscape.org/namespaces/inkscape"
   width="16"
   height="16"
   fill="currentColor"
   class="bi bi-person-lines-fill"
   viewBox="0 0 16 16"
   version="1.1"
   id="svg4"
   sodipodi:docname="contacts.svg"
   inkscape:version="1.0.2 (e86c870879, 2021-01-15, custom)">
  <metadata
     id="metadata10">
    <rdf:RDF>
      <cc:Work
         rdf:about="">
        <dc:format>image/svg+xml</dc:format>
        <dc:type
           rdf:resource="http://purl.org/dc/dcmitype/StillImage" />
      </cc:Work>
    </rdf:RDF>
  </metadata>
  <defs
     id="defs8" />
  <sodipodi:namedview
     pagecolor="#ffffff"
     bordercolor="#666666"
     borderopacity="1"
     objecttolerance="10"
     gridtolerance="10"
     guidetolerance="10"
     inkscape:pageopacity="0"
     inkscape:pageshadow="2"
     inkscape:window-width="1920"
     inkscape:window-height="1057"
     id="namedview6"
     showgrid="false"
     inkscape:zoom="55.625"
     inkscape:cx="8"
     inkscape:cy="8"
     inkscape:window-x="-8"
     inkscape:window-y="-8"
     inkscape:window-maximized="1"
     inkscape:current-layer="svg4" />
  <path
     d="M6 8a3 3 0 1 0 0-6 3 3 0 0 0 0 6zm-5 6s-1 0-1-1 1-4 6-4 6 3 6 4-1 1-1 1H1zM11 3.5a.5.5 0 0 1 .5-.5h4a.5.5 0 0 1 0 1h-4a.5.5 0 0 1-.5-.5zm.5 2.5a.5.5 0 0 0 0 1h4a.5.5 0 0 0 0-1h-4zm2 3a.5.5 0 0 0 0 1h2a.5.5 0 0 0 0-1h-2zm0 3a.5.5 0 0 0 0 1h2a.5.5 0 0 0 0-1h-2z"
     id="path2" />
  <path
     style="fill:#ffffff;stroke-width:0.0179775"
     d="M 5.788764,7.9793996 C 4.8802312,7.9201107 4.0247095,7.4230044 3.5192335,6.6606742 2.405713,4.981326 3.2106427,2.7310956 5.1359951,2.1409173 5.4637837,2.0404403 5.5989158,2.022366 6.0134831,2.0235511 c 0.4153482,0.00119 0.5734564,0.024558 0.91082,0.1346331 1.030069,0.3360909 1.7970387,1.2064529 2.0138828,2.2853664 0.059229,0.2946952 0.05907,0.8144604 -3.38e-4,1.1101738 C 8.6967536,6.7537933 7.7737541,7.6884361 6.591879,7.929287 6.4918182,7.949678 6.3409701,7.9702033 6.2566609,7.9748985 c -0.084309,0.0047 -0.1775592,0.010664 -0.2072222,0.013265 -0.029663,0.0026 -0.1469663,-0.00134 -0.2606741,-0.00876 z"
     id="path12" />
  <path
     style="fill:#ffffff;stroke-width:0.0179775"
     d="M 0.74377841,13.950944 C 0.38218157,13.856142 0.1302484,13.618988 0.04550458,13.293635 0.00534476,13.139451 0.00973901,12.826603 0.05539236,12.589677 0.22458064,11.711644 0.79997381,10.83289 1.6,10.230717 2.6289463,9.4562374 3.9819714,9.0586797 5.7438202,9.0131434 c 1.8996655,-0.049098 3.539172,0.3750819 4.6328828,1.1986396 0.810181,0.610061 1.374826,1.456453 1.563394,2.343498 0.04731,0.222553 0.05578,0.600042 0.01659,0.739101 -0.07255,0.257402 -0.242753,0.463396 -0.473085,0.572555 -0.274127,0.129915 0.19919,0.119689 -5.489246,0.11859 -4.9429514,-9.55e-4 -5.12693674,-0.0022 -5.25057859,-0.03458 z"
     id="path14" />
  <path
     style="fill:#ffffff;stroke-width:0.0179775"
     d="M 11.356453,3.9650818 C 11.179609,3.9020003 11.057119,3.7642343 11.020335,3.5870482 10.969115,3.3403207 11.15038,3.0744716 11.406742,3.0203347 c 0.0609,-0.012861 0.753687,-0.017388 2.148314,-0.01404 2.305115,0.00553 2.113753,-0.00616 2.271036,0.1388147 0.114485,0.1055287 0.161299,0.2241518 0.153036,0.3877797 -0.0053,0.1051566 -0.01656,0.1453524 -0.06076,0.2171766 -0.05895,0.095786 -0.186906,0.1929983 -0.292706,0.2223839 -0.0433,0.012026 -0.779433,0.018124 -2.133525,0.017673 -1.692112,-5.638e-4 -2.079809,-0.00511 -2.135682,-0.02504 z"
     id="path16" />
  <path
     style="fill:#ffffff;stroke-width:0.0179775"
     d="m 11.395287,6.9807238 c -0.08711,-0.01367 -0.23783,-0.1189367 -0.297105,-0.2075114 -0.195202,-0.2916868 -0.03805,-0.6769268 0.306363,-0.7510236 0.06492,-0.013967 0.699344,-0.018173 2.150511,-0.014258 2.05234,0.00554 2.058666,0.00567 2.139326,0.043565 0.09557,0.044907 0.20038,0.1462837 0.245999,0.2379491 0.02398,0.048193 0.03265,0.1069246 0.03265,0.2212276 0,0.152147 -0.0016,0.1579455 -0.07191,0.260134 -0.05561,0.080829 -0.09607,0.1168645 -0.178497,0.158991 l -0.106586,0.054473 -2.086672,0.00195 c -1.14767,0.00107 -2.108007,-0.0014 -2.134082,-0.00549 z"
     id="path18" />
  <path
     style="fill:#ffffff;stroke-width:0.0179775"
     d="M 13.37179,9.9706978 C 13.28305,9.9464528 13.260108,9.9325658 13.161843,9.8436344 12.917105,9.6221398 12.993167,9.1967633 13.303169,9.0532701 c 0.07949,-0.036792 0.103294,-0.03754 1.195707,-0.03754 h 1.114607 l 0.103668,0.050906 c 0.112276,0.055133 0.211519,0.1655032 0.247877,0.2756686 0.02791,0.08457 0.01389,0.2869109 -0.02551,0.368251 -0.04406,0.090941 -0.148942,0.1927521 -0.245132,0.2379491 -0.07926,0.03724 -0.102799,0.038085 -1.159551,0.041631 -0.831008,0.00279 -1.098026,-0.00167 -1.163041,-0.019438 z"
     id="path20" />
  <path
     style="fill:#ffffff;stroke-width:0.0179775"
     d="m 13.402247,12.981219 c -0.228587,-0.05731 -0.386775,-0.253777 -0.384754,-0.477848 0.0017,-0.190944 0.08998,-0.342642 0.251014,-0.431461 l 0.09779,-0.05393 1.092723,-0.005 c 0.718083,-0.0033 1.116604,0.0014 1.162379,0.01373 0.108441,0.0292 0.237036,0.125876 0.296972,0.223259 0.04421,0.07182 0.05545,0.11202 0.06076,0.217176 0.0083,0.163628 -0.03855,0.282251 -0.153036,0.38778 -0.152863,0.140903 -0.08315,0.133514 -1.291261,0.136862 -0.593258,0.0016 -1.102921,-0.0031 -1.132584,-0.01053 z"
     id="path22" />
</svg>
