<?xml version="1.0" encoding="UTF-8" standalone="no"?>
<svg
   xmlns:dc="http://purl.org/dc/elements/1.1/"
   xmlns:cc="http://creativecommons.org/ns#"
   xmlns:rdf="http://www.w3.org/1999/02/22-rdf-syntax-ns#"
   xmlns:svg="http://www.w3.org/2000/svg"
   xmlns="http://www.w3.org/2000/svg"
   xmlns:sodipodi="http://sodipodi.sourceforge.net/DTD/sodipodi-0.dtd"
   xmlns:inkscape="http://www.inkscape.org/namespaces/inkscape"
   version="1.1"
   x="0px"
   y="0px"
   viewBox="0 0 75 75"
   xml:space="preserve"
   id="svg30"
   sodipodi:docname="projects.svg"
   width="75"
   height="75"
   inkscape:version="1.0.2 (e86c870879, 2021-01-15, custom)"><metadata
     id="metadata36"><rdf:RDF><cc:Work
         rdf:about=""><dc:format>image/svg+xml</dc:format><dc:type
           rdf:resource="http://purl.org/dc/dcmitype/StillImage" /><dc:title /></cc:Work></rdf:RDF></metadata><defs
     id="defs34" /><sodipodi:namedview
     pagecolor="#ffffff"
     bordercolor="#666666"
     borderopacity="1"
     objecttolerance="10"
     gridtolerance="10"
     guidetolerance="10"
     inkscape:pageopacity="0"
     inkscape:pageshadow="2"
     inkscape:window-width="1920"
     inkscape:window-height="1057"
     id="namedview32"
     showgrid="false"
     inkscape:zoom="2.7764706"
     inkscape:cx="34"
     inkscape:cy="42.5"
     inkscape:window-x="-8"
     inkscape:window-y="-8"
     inkscape:window-maximized="1"
     inkscape:current-layer="svg30"
     inkscape:document-rotation="0" /><style
     type="text/css"
     id="style2">
	.st0{fill:#010101;}
	.st1{fill:none;stroke:#010101;stroke-width:2;stroke-linecap:round;stroke-linejoin:round;stroke-miterlimit:10;}
</style><g
     id="g24"
     transform="translate(3.9618644,4.7669492)"><g
       id="g6"><path
         class="st0"
         d="M 63.7,8 H 32.6 l -3,-4.6 c 0,0 0,-0.1 -0.1,-0.1 C 28.2,1.8 26.4,1 24.4,1 H 3.1 C 1.9,1 1,1.9 1,3.1 v 45.4 c 0,1.8 1.5,3.2 3.3,3.2 h 19.1 c 0.6,0 1,-0.4 1,-1 0,-0.6 -0.4,-1 -1,-1 H 4.3 C 3.6,49.7 3,49.2 3,48.5 V 19.7 h 62 v 28.8 c 0,0.7 -0.6,1.2 -1.3,1.2 h -1.8 c -0.6,0 -1,0.4 -1,1 0,0.6 0.4,1 1,1 h 1.8 c 1.8,0 3.3,-1.4 3.3,-3.2 V 11.3 C 67,10 65.6,8 63.7,8 Z M 3,17.7 V 3.1 C 3,3 3,3 3.1,3 h 21.3 c 1.4,0 2.7,0.6 3.5,1.6 l 3.3,5 C 31.4,9.9 31.7,10 32,10 h 31.6 c 0.7,0 1.3,0.9 1.3,1.2 v 6.5 z"
         id="path4"
         inkscape:connector-curvature="0"
         style="fill:#010101" /></g><g
       id="g10"><path
         class="st0"
         d="M 51.3,42.8 62.1,33 c 0.7,-0.6 1.1,-1.4 1.1,-2.3 0,-0.9 -0.3,-1.8 -0.9,-2.4 L 59.5,25.2 C 58.2,23.8 56.1,23.7 54.7,25 l -4.6,4 c 0,0 -0.1,0 -0.1,0.1 L 43.5,35 32.3,23.6 c -0.4,-0.4 -1,-0.4 -1.4,0 L 20.5,33.8 c -0.2,0.2 -0.3,0.4 -0.3,0.7 0,0.3 0.1,0.5 0.3,0.7 l 10.8,10.9 -7.4,6.8 c 0,0 0,0 0,0 0,0 -0.2,0.2 -0.2,0.2 l -7,12.4 c -0.2,0.4 -0.2,0.8 0.1,1.2 0.3,0.3 0.8,0.4 1.1,0.2 l 12.9,-5.7 c 0.1,0 0.3,-0.1 0.4,-0.2 0,0 0,0 0,0 0,0 0,0 0,0 L 39,53.9 c 0.7,0.7 12.4,12.6 12.4,12.6 0.2,0.2 0.5,0.3 0.7,0.3 0.3,0 0.5,-0.1 0.7,-0.3 L 63.2,56.3 c 0.2,-0.2 0.3,-0.4 0.3,-0.7 0,-0.3 -0.1,-0.5 -0.3,-0.7 z m -3.2,-3.2 5.6,-5 1.7,1.8 -5.5,5 z M 56,26.4 c 0.6,-0.5 1.4,-0.5 2,0.1 l 2.8,3.1 c 0.2,0.3 0.4,0.6 0.4,1 0,0.4 -0.2,0.7 -0.4,1 l -3.9,3.5 -2.3,-2.6 c 0,0 0,0 0,0 0,0 0,0 0,0 l -2.3,-2.6 z m -5.4,4.9 1.7,1.8 -5.6,5.1 -1.7,-1.8 z m -24.7,22.4 6.8,-6.2 1.7,1.7 -6.9,6.2 z m -1.2,1.6 4.2,4.6 -9,4 z m 5.9,3.5 -1.8,-2 6.9,-6.2 1.8,1.9 z m 21.6,5.6 -2.5,-2.5 5.8,-5.7 c 0.4,-0.4 0.4,-1 0,-1.4 -0.4,-0.4 -1,-0.4 -1.4,0 L 48.3,60.5 45.8,58 49,54.8 c 0.4,-0.4 0.4,-1 0,-1.4 -0.4,-0.4 -1,-0.4 -1.4,0 l -3.2,3.2 -2.4,-2.5 5.8,-5.7 c 0.4,-0.4 0.4,-1 0,-1.4 -0.4,-0.4 -1,-0.4 -1.4,0 l -5.8,5.7 -2.4,-2.5 3.2,-3.2 c 0.4,-0.4 0.4,-1 0,-1.4 -0.4,-0.4 -1,-0.4 -1.4,0 l -3.2,3.2 -2.4,-2.5 5.8,-5.7 c 0.4,-0.4 0.4,-1 0,-1.4 -0.4,-0.4 -1,-0.4 -1.4,0 l -5.8,5.7 -2.4,-2.5 3.2,-3.2 c 0.4,-0.4 0.4,-1 0,-1.4 -0.4,-0.4 -1,-0.4 -1.4,0 L 29,41 26.6,38.5 32.4,32.8 c 0.4,-0.4 0.4,-1 0,-1.4 C 32,31 31.4,31 31,31.4 l -5.8,5.7 -2.5,-2.6 8.9,-8.8 17.5,17.8 v 0 0 l 12,12.2 z"
         id="path8"
         inkscape:connector-curvature="0"
         style="fill:#010101" /></g><g
       id="g14"><path
         class="st0"
         d="m 6.8,28.2 h 15.7 c 0.6,0 1,-0.4 1,-1 0,-0.6 -0.4,-1 -1,-1 H 6.8 c -0.6,0 -1,0.4 -1,1 0,0.5 0.5,1 1,1 z"
         id="path12"
         inkscape:connector-curvature="0"
         style="fill:#010101" /></g><g
       id="g18"><path
         class="st0"
         d="m 6.8,36.1 h 10.7 c 0.6,0 1,-0.4 1,-1 0,-0.6 -0.4,-1 -1,-1 H 6.8 c -0.6,0 -1,0.4 -1,1 0,0.6 0.5,1 1,1 z"
         id="path16"
         inkscape:connector-curvature="0"
         style="fill:#010101" /></g><g
       id="g22"><path
         class="st0"
         d="m 6.8,44.1 h 15.7 c 0.6,0 1,-0.4 1,-1 0,-0.6 -0.4,-1 -1,-1 H 6.8 c -0.6,0 -1,0.4 -1,1 0,0.5 0.5,1 1,1 z"
         id="path20"
         inkscape:connector-curvature="0"
         style="fill:#010101" /></g></g><path
     style="fill:#ffffff;stroke-width:0.36017"
     d="m 20.828591,71.197621 c -0.100485,-0.261862 1.427851,-3.314118 3.396304,-6.782799 3.681534,-6.487359 3.495855,-6.256541 9.59502,-11.927552 l 1.800848,-1.67443 -5.762712,-5.793243 -5.762712,-5.793242 5.46785,-5.386483 c 3.007317,-2.962565 5.683475,-5.386482 5.947018,-5.386482 0.263543,0 3.058233,2.582848 6.210422,5.739663 l 5.731254,5.739664 0.963886,-0.787333 c 0.530137,-0.433033 3.271265,-2.853806 6.091396,-5.379494 6.407246,-5.738284 6.61144,-5.785063 9.962508,-2.282314 2.238705,2.340033 2.766656,3.457058 2.269341,4.801428 -0.151134,0.408547 -2.797987,3.053828 -5.881899,5.878402 C 57.7732,44.98798 55.25,47.439585 55.25,47.611417 c 0,0.171832 2.674258,3.038881 5.942796,6.37122 3.268539,3.33234 5.942797,6.20244 5.942797,6.378 0,0.448428 -10.534702,10.952922 -10.98442,10.952922 -0.202632,0 -3.273082,-2.908023 -6.82322,-6.462276 l -6.454796,-6.462277 -3.863197,3.590269 -3.863197,3.590269 -6.930704,3.052094 c -3.811887,1.678649 -6.992369,3.052091 -7.067736,3.052091 -0.07537,0 -0.219247,-0.214251 -0.319732,-0.476108 z M 60.989585,64.69377 65.315966,60.415086 50.510553,45.340482 35.705139,30.265878 33.682018,32.034021 c -1.112716,0.972478 -3.232835,2.994 -4.711376,4.492271 l -2.688257,2.724128 1.407546,1.441459 1.407547,1.441458 3.125221,-3.058194 c 1.718872,-1.682007 3.298603,-3.058194 3.510514,-3.058194 1.204217,0 0.561213,1.113989 -2.305252,3.993798 l -3.182684,3.197498 1.227676,1.26664 c 0.675222,0.696652 1.405251,1.26664 1.622286,1.26664 0.217036,0 1.110407,-0.729343 1.985269,-1.620762 C 35.955371,43.229343 36.87097,42.5 37.115175,42.5 c 1.120846,0 0.780028,0.945272 -0.985324,2.732829 l -1.918007,1.942132 1.225324,1.264214 c 0.673929,0.695318 1.399929,1.264215 1.613333,1.264215 0.213405,0 1.677014,-1.29661 3.252465,-2.881356 1.575451,-1.584746 3.070854,-2.881356 3.323118,-2.881356 1.111103,0 0.245266,1.460057 -2.505757,4.225445 l -2.964418,2.979899 1.339859,1.339859 1.339858,1.339859 1.726974,-1.701006 c 0.949835,-0.935553 1.914437,-1.701005 2.143558,-1.701005 1.076719,0 0.748474,0.950644 -0.91377,2.646407 l -1.81903,1.855711 1.223466,1.440678 1.223467,1.440678 2.443456,-2.351144 c 4.133145,-3.976999 4.24727,-4.05896 4.771787,-3.426956 0.386768,0.466027 -0.01275,0.991289 -2.647213,3.480398 -1.706501,1.612345 -3.102728,3.121801 -3.102728,3.354347 0,0.232546 0.568897,0.974207 1.264215,1.648136 l 1.264214,1.225325 1.97444,-1.949915 c 1.436621,-1.418775 2.082419,-1.841937 2.370847,-1.553508 0.528143,0.528142 0.0538,1.358876 -1.803711,3.158925 l -1.47007,1.424591 1.313387,1.345032 1.313388,1.345031 3.216514,-2.949708 c 1.769083,-1.622338 3.393498,-2.949706 3.609808,-2.949706 1.155273,0 0.372895,1.244722 -2.482915,3.950196 l -3.186642,3.018893 1.251661,1.29849 c 0.688413,0.714169 1.452095,1.253116 1.697068,1.197657 0.244973,-0.05545 2.392278,-2.026238 4.771788,-4.379517 z m -32.54571,2.172856 c 2.362542,-1.059158 4.295532,-2.081701 4.295532,-2.272317 0,-0.190612 -0.912522,-1.370985 -2.027826,-2.62305 l -2.027825,-2.276482 -1.426396,2.477824 c -3.119465,5.418891 -3.742072,6.619772 -3.432079,6.619772 0.177684,0 2.256051,-0.866586 4.618594,-1.925747 z m 10.238314,-6.692074 3.061426,-2.860335 -1.045932,-1.091716 -1.04593,-1.091717 -2.127899,1.878464 c -1.170344,1.033155 -2.80666,2.474213 -3.636257,3.20235 l -1.50836,1.323886 1.043037,1.091796 c 1.261619,1.320596 1.181153,1.358118 5.259915,-2.452728 z m -3.372108,-3.142449 3.394797,-3.116201 -0.794459,-0.845663 c -0.436952,-0.465115 -0.949158,-0.845663 -1.138235,-0.845663 -0.350843,0 -1.819287,1.242269 -5.226429,4.421435 l -1.913991,1.785924 0.806222,0.858185 c 0.443423,0.472002 0.957215,0.858185 1.14176,0.858185 0.184545,0 1.863195,-1.402291 3.730335,-3.116202 z M 59.572034,41.070786 c 0,-0.135338 -0.399165,-0.621063 -0.887029,-1.079389 -1.045875,-0.98255 -1.157084,-0.928227 -4.695598,2.293708 l -2.161017,1.967678 1.0416,1.087579 1.041601,1.087579 2.83022,-2.555544 c 1.556624,-1.405549 2.830223,-2.666274 2.830223,-2.801611 z m -3.599235,-2.715699 c 0.387463,-0.466867 0.326393,-0.704284 -0.372549,-1.448272 -0.459791,-0.489426 -0.95339,-0.889866 -1.096885,-0.889866 -0.143494,0 -1.500799,1.15793 -3.016232,2.573177 l -2.755333,2.573177 0.97365,1.016271 0.973649,1.016271 2.415132,-2.141176 c 1.328322,-1.177647 2.623678,-2.392459 2.878568,-2.699582 z m 7.290972,-0.334271 c 1.186777,-1.112997 2.070975,-2.250543 2.070975,-2.664362 0,-0.980931 -3.48509,-4.742047 -4.394032,-4.742047 -0.396032,0 -1.677374,0.931938 -2.847432,2.070974 l -2.127376,2.070975 2.373152,2.611229 c 1.305237,1.436176 2.481287,2.607681 2.613448,2.603344 0.13216,-0.0043 1.172229,-0.881888 2.311265,-1.950113 z"
     id="path42" /><path
     style="fill:#ffffff;stroke-width:0.36017"
     d="M 6.0759507,55.307847 5.1864408,54.418336 V 30.879702 c 0,-19.770174 0.081914,-23.6505633 0.5116509,-24.2377696 C 6.1865764,5.974452 6.7451123,5.9427968 18.033897,5.9427968 c 14.173045,0 13.65656,-0.1327982 16.506357,4.2441062 l 1.800848,2.765859 16.145289,0.0067 16.145292,0.0067 1.052801,1.052803 1.052804,1.052803 v 19.673314 19.673314 l -0.902794,0.902794 c -0.7727,0.7727 -1.174927,0.887115 -2.791313,0.794008 -1.390222,-0.08008 -1.88852,-0.25133 -1.88852,-0.649036 0,-0.377912 0.521623,-0.60018 1.735894,-0.73968 0.954745,-0.109683 1.885236,-0.433835 2.067759,-0.720339 0.192107,-0.301538 0.295299,-6.663982 0.245037,-15.107778 L 69.116525,24.311441 H 37.961864 6.8072035 l -0.086827,14.586864 c -0.052337,8.792537 0.049584,14.801468 0.2565797,15.127119 0.2877134,0.452635 2.0249504,0.56946 10.7118268,0.720339 8.896223,0.154516 10.36842,0.256793 10.36842,0.720339 0,0.465749 -1.45432,0.553425 -10.545871,0.635753 l -10.5458711,0.0955 z M 68.858583,18.818856 68.756356,14.947034 52.368644,14.766949 C 43.355403,14.667903 35.800811,14.469632 35.580663,14.326347 35.360514,14.183063 34.388057,12.847816 33.419646,11.359131 32.301676,9.6405381 31.244578,8.4536809 30.523958,8.107996 29.585107,7.6576248 27.422667,7.5635595 18.008068,7.5635595 H 6.6271188 v 7.5635595 7.563559 H 37.793965 68.96081 Z"
     id="path44" /><path
     style="fill:#ffffff;stroke-width:0.36017"
     d="m 10.048729,48.262712 c -0.5817836,-0.941346 0.534258,-1.080509 8.665324,-1.080509 8.202614,0 8.442727,0.02049 8.442727,0.720339 0,0.699853 -0.240113,0.720339 -8.442727,0.720339 -5.239974,0 -8.527169,-0.13663 -8.665324,-0.360169 z"
     id="path46" /><path
     style="fill:#ffffff;stroke-width:0.36017"
     d="m 10.038978,40.323206 c -0.1277912,-0.206771 -0.03647,-0.611961 0.20293,-0.900424 0.345204,-0.415945 1.525482,-0.523336 5.703676,-0.518962 5.40303,0.0057 6.43805,0.214067 6.052525,1.218728 -0.190099,0.495391 -1.031529,0.576605 -5.974023,0.576605 -3.607612,0 -5.8394,-0.140187 -5.985108,-0.375947 z"
     id="path48" /><path
     style="fill:#ffffff;stroke-width:0.36017"
     d="m 10.100675,32.240664 c -0.1193871,-0.311119 0.08053,-0.687684 0.478042,-0.900424 0.845147,-0.452309 15.471517,-0.485149 16.180334,-0.03633 0.276482,0.175067 0.403126,0.577776 0.281431,0.894909 -0.193975,0.505489 -1.239586,0.576604 -8.477932,0.576604 -6.969306,0 -8.288664,-0.08338 -8.461875,-0.534759 z"
     id="path50" /></svg>
