<?xml version="1.0" encoding="UTF-8" standalone="no"?>
<svg
   xmlns:dc="http://purl.org/dc/elements/1.1/"
   xmlns:cc="http://creativecommons.org/ns#"
   xmlns:rdf="http://www.w3.org/1999/02/22-rdf-syntax-ns#"
   xmlns:svg="http://www.w3.org/2000/svg"
   xmlns="http://www.w3.org/2000/svg"
   xmlns:sodipodi="http://sodipodi.sourceforge.net/DTD/sodipodi-0.dtd"
   xmlns:inkscape="http://www.inkscape.org/namespaces/inkscape"
   width="16"
   height="16"
   fill="currentColor"
   class="bi bi-card-text"
   viewBox="0 0 16 16"
   version="1.1"
   id="svg6"
   sodipodi:docname="video.svg"
   inkscape:version="1.0.2 (e86c870879, 2021-01-15, custom)">
  <metadata
     id="metadata12">
    <rdf:RDF>
      <cc:Work
         rdf:about="">
        <dc:format>image/svg+xml</dc:format>
        <dc:type
           rdf:resource="http://purl.org/dc/dcmitype/StillImage" />
      </cc:Work>
    </rdf:RDF>
  </metadata>
  <defs
     id="defs10" />
  <sodipodi:namedview
     pagecolor="#ffffff"
     bordercolor="#666666"
     borderopacity="1"
     objecttolerance="10"
     gridtolerance="10"
     guidetolerance="10"
     inkscape:pageopacity="0"
     inkscape:pageshadow="2"
     inkscape:window-width="1920"
     inkscape:window-height="1057"
     id="namedview8"
     showgrid="false"
     inkscape:zoom="55.625"
     inkscape:cx="8"
     inkscape:cy="8"
     inkscape:window-x="-8"
     inkscape:window-y="-8"
     inkscape:window-maximized="1"
     inkscape:current-layer="svg6" />
  <path
     d="M14.5 3a.5.5 0 0 1 .5.5v9a.5.5 0 0 1-.5.5h-13a.5.5 0 0 1-.5-.5v-9a.5.5 0 0 1 .5-.5h13zm-13-1A1.5 1.5 0 0 0 0 3.5v9A1.5 1.5 0 0 0 1.5 14h13a1.5 1.5 0 0 0 1.5-1.5v-9A1.5 1.5 0 0 0 14.5 2h-13z"
     id="path2" />
  <path
     d="M3 5.5a.5.5 0 0 1 .5-.5h9a.5.5 0 0 1 0 1h-9a.5.5 0 0 1-.5-.5zM3 8a.5.5 0 0 1 .5-.5h9a.5.5 0 0 1 0 1h-9A.5.5 0 0 1 3 8zm0 2.5a.5.5 0 0 1 .5-.5h6a.5.5 0 0 1 0 1h-6a.5.5 0 0 1-.5-.5z"
     id="path4" />
  <path
     style="fill:#ffffff;stroke-width:0.0179775"
     d="M 1.2019115,13.95942 C 0.74373544,13.867882 0.3124427,13.513341 0.12795373,13.07658 0.09919917,13.008506 0.06066883,12.88809 0.04233074,12.808989 0.01031493,12.670889 0.00898876,12.479613 0.00898876,8 c 0,-4.4796133 0.00132617,-4.6708889 0.03334198,-4.8089888 C 0.11479985,2.8784166 0.25298691,2.6405771 0.49553183,2.4109882 0.6179541,2.2951053 0.68620735,2.2473894 0.83239581,2.1754862 0.93322979,2.1258908 1.0683146,2.0711736 1.1325843,2.0538923 1.2428377,2.0242467 1.6307465,2.0224719 8,2.0224719 c 6.369253,0 6.757162,0.00177 6.867416,0.03142 0.06427,0.017281 0.199354,0.071999 0.300188,0.1215939 0.394929,0.1942469 0.686574,0.5691181 0.790065,1.015525 0.03202,0.1380999 0.03334,0.3293755 0.03334,4.8089888 0,4.4591764 -0.0015,4.6713694 -0.03293,4.8055834 -0.07465,0.318303 -0.210971,0.553747 -0.453614,0.783429 -0.12252,0.115976 -0.190558,0.163524 -0.336864,0.235415 -0.100834,0.04955 -0.231874,0.104265 -0.2912,0.121594 -0.101859,0.02975 -0.482197,0.03167 -6.8314602,0.03438 -5.524601,0.0024 -6.7448942,-0.0014 -6.8430323,-0.02098 z M 14.707906,12.965756 c 0.10977,-0.05408 0.20942,-0.152975 0.256335,-0.254388 l 0.03801,-0.08216 V 8 3.3707865 l -0.03801,-0.082155 C 14.917326,3.1872189 14.817676,3.0883257 14.707906,3.0342436 l -0.08319,-0.040985 H 8 1.3752809 l -0.083187,0.040985 c -0.10977,0.054082 -0.20942,0.1529753 -0.256335,0.254388 l -0.0380061,0.082155 -0.004632,4.5926785 c -0.005069,5.0262359 -0.0117585,4.6974529 0.0984729,4.8401009 0.068914,0.08918 0.1977927,0.173752 0.2935038,0.192602 0.045166,0.0089 2.9483316,0.01464 6.6598464,0.01317 l 6.5797751,-0.0026 z"
     id="path14" />
  <path
     style="fill:#ffffff;stroke-width:0.0179775"
     d="m 3.3078652,10.946903 c -0.2474899,-0.1119 -0.3609171,-0.39644 -0.2538458,-0.636791 0.048183,-0.10816 0.1096407,-0.175799 0.2178907,-0.239806 l 0.080899,-0.04783 h 3.1460674 3.1460674 l 0.073136,0.03915 c 0.08859,0.04742 0.1988296,0.165918 0.2372021,0.254973 0.036549,0.08482 0.036549,0.279745 0,0.364569 -0.042524,0.09869 -0.1557102,0.213819 -0.2564059,0.26081 l -0.089888,0.04195 -3.1101124,-2.19e-4 c -3.0890209,-2.17e-4 -3.110661,-4.67e-4 -3.1910112,-0.0368 z"
     id="path16" />
  <path
     style="fill:#ffffff;stroke-width:0.0179775"
     d="M 3.2988764,8.4424753 C 2.9173747,8.2618136 2.9227823,7.7260838 3.3078652,7.5519737 3.3885434,7.5154961 3.4013405,7.5153958 8,7.5151772 l 4.611236,-2.192e-4 0.08989,0.042567 c 0.37686,0.178464 0.37686,0.7064866 0,0.8849506 l -0.08989,0.042567 H 8 3.388764 Z"
     id="path18" />
  <path
     style="fill:#ffffff;stroke-width:0.0179775"
     d="M 3.3417541,5.9617864 C 3.143179,5.8906043 3.0138752,5.7052745 3.01408,5.4921348 3.0142568,5.3081424 3.1315899,5.1327979 3.3078652,5.0530973 3.3885434,5.0166197 3.4013405,5.0165194 8,5.0163008 l 4.611236,-2.192e-4 0.08989,0.041947 c 0.101791,0.047502 0.209913,0.1579607 0.252958,0.2584247 0.09282,0.2166317 -0.01555,0.503577 -0.234981,0.6222005 l -0.07191,0.038874 -4.6202247,0.00378 C 4.2816155,5.984367 3.3944357,5.980671 3.3417541,5.9617864 Z"
     id="path20" />
</svg>
